#tb 0: 1/25
0,          0,          0,        1,   149760, 0x8edb27d7
0,          1,          1,        1,   149760, 0xb5932505
0,          2,          2,        1,   149760, 0xa5b20e66
0,          3,          3,        1,   149760, 0x0d9f17cb
0,          4,          4,        1,   149760, 0xf2b1dc80
0,          5,          5,        1,   149760, 0xab8c8272
0,          6,          6,        1,   149760, 0x50662cf4
0,          7,          7,        1,   149760, 0x83cc8d5f
